Coordinates
version=1
nRows=16
nColumns=38
inDegrees=no

Units are S.I. units (second, meters, Newtons, ...)
If the header above contains a line with 'inDegrees', this indicates whether rotational values are in degrees (yes) or radians (no).

endheader
time	pelvis_tilt	pelvis_list	pelvis_rotation	pelvis_tx	pelvis_ty	pelvis_tz	hip_flexion_r	hip_adduction_r	hip_rotation_r	knee_angle_r	ankle_angle_r	subtalar_angle_r	mtp_angle_r	hip_flexion_l	hip_adduction_l	hip_rotation_l	knee_angle_l	ankle_angle_l	subtalar_angle_l	mtp_angle_l	lumbar_extension	lumbar_bending	lumbar_rotation	arm_flex_r	arm_add_r	arm_rot_r	elbow_flex_r	pro_sup_r	wrist_flex_r	wrist_dev_r	arm_flex_l	arm_add_l	arm_rot_l	elbow_flex_l	pro_sup_l	wrist_flex_l	wrist_dev_l
3.11	-0.260674	-0.031907	-0.159143	0.989154	0.987619	-0.332836	0.72821	0.0719925	-0.275421	-0.711076	0.296677	0.0915429	0.0289867	0.412988	-0.067423	-0.121377	-1.93841	0.0473636	0.0686156	-0.0460686	0.0315734	0.114797	0.119196	-0.743751	-0.334691	-0.25627	1.99524	1.25509	0.0296385	0.0387998	-0.530514	-0.273043	-0.0193261	2.04536	1.5663	0.0524674	0.043873
3.12	-0.271329	-0.0358014	-0.160963	0.984242	0.980916	-0.332991	0.723585	0.08139	-0.235725	-0.773566	0.374355	0.0915429	0.0289867	0.500438	-0.0869945	-0.113177	-2.01089	0.0883693	0.0686156	-0.0460686	0.0323765	0.119106	0.140551	-0.686766	-0.349477	-0.23163	1.97079	1.26734	0.0296385	0.0387998	-0.535957	-0.276372	-0.0168579	1.97594	1.59877	0.0524674	0.043873
3.13	-0.280161	-0.0376899	-0.160182	0.979411	0.975344	-0.333383	0.710551	0.0872571	-0.199608	-0.824354	0.450074	0.0915429	0.0289867	0.588339	-0.101236	-0.100539	-2.06648	0.126722	0.0686156	-0.0460686	0.0323058	0.120382	0.15983	-0.626388	-0.363882	-0.205442	1.94589	1.27827	0.0296385	0.0387998	-0.543342	-0.279247	-0.0159806	1.91078	1.62749	0.0524674	0.043873
3.14	-0.286956	-0.0374315	-0.156544	0.974901	0.97111	-0.333959	0.687416	0.0887767	-0.169873	-0.859846	0.517964	0.0915429	0.0289867	0.674767	-0.109567	-0.0851274	-2.10377	0.161101	0.0686156	-0.0460686	0.0318036	0.118361	0.176772	-0.565036	-0.376922	-0.179291	1.92376	1.28888	0.0296385	0.0387998	-0.554045	-0.282047	-0.0169416	1.85375	1.64912	0.0524674	0.043873
3.15	-0.29187	-0.0350294	-0.150052	0.970984	0.968377	-0.334663	0.653574	0.0855838	-0.14833	-0.878198	0.573024	0.0915429	0.0289867	0.757936	-0.112018	-0.0688976	-2.12202	0.190647	0.0686156	-0.0460686	0.0315965	0.112995	0.19146	-0.505508	-0.387519	-0.155018	1.90788	1.3003	0.0296385	0.0387998	-0.569296	-0.285222	-0.019959	1.80853	1.66111	0.0524674	0.043873
3.16	-0.295331	-0.0306089	-0.140968	0.967897	0.967206	-0.335434	0.609422	0.077825	-0.135743	-0.879185	0.611174	0.0915429	0.0289867	0.836244	-0.109158	-0.0538738	-2.12117	0.214994	0.0686156	-0.0460686	0.032512	0.104414	0.204222	-0.450524	-0.394713	-0.134359	1.90136	1.31378	0.0296385	0.0387998	-0.590026	-0.289148	-0.0252668	1.77795	1.6624	0.0524674	0.043873
3.17	-0.297905	-0.0244071	-0.129732	0.965793	0.967548	-0.33621	0.556131	0.0661182	-0.131965	-0.863886	0.629221	0.0915429	0.0289867	0.908311	-0.101954	-0.0419067	-2.10177	0.23434	0.0686156	-0.0460686	0.0352989	0.0929059	0.215432	-0.402266	-0.39787	-0.118564	1.90647	1.33068	0.0296385	0.0387998	-0.616767	-0.293997	-0.033147	1.76356	1.65385	0.0524674	0.043873
3.18	-0.300158	-0.0167778	-0.116845	0.964746	0.969277	-0.336942	0.495397	0.0514355	-0.136187	-0.834318	0.624872	0.0915429	0.0289867	0.973023	-0.0915541	-0.0344197	-2.0649	0.249418	0.0686156	-0.0460686	0.0404854	0.0789061	0.225338	-0.362055	-0.396841	-0.10812	1.92426	1.35235	0.0296385	0.0387998	-0.649578	-0.299662	-0.0439069	1.76537	1.63797	0.0524674	0.043873
3.19	-0.302549	-0.00818679	-0.102745	0.964741	0.972205	-0.337608	0.429212	0.0349606	-0.147168	-0.793133	0.596883	0.0915429	0.0289867	1.02956	-0.0790669	-0.0322185	-2.01204	0.261363	0.0686156	-0.0460686	0.0482774	0.0629957	0.233966	-0.330251	-0.392009	-0.10266	1.95445	1.37987	0.0296385	0.0387998	-0.688012	-0.305764	-0.0577968	1.78191	1.61821	0.0524674	0.043873
3.2	-0.305362	0.00082224	-0.0877476	0.965692	0.976091	-0.338222	0.359712	0.01795	-0.163385	-0.743436	0.545274	0.0915429	0.0289867	1.07741	-0.0654125	-0.0354386	-1.94494	0.271561	0.0686156	-0.0460686	0.0585115	0.045891	0.241159	-0.306387	-0.384239	-0.101097	1.99558	1.41392	0.0296385	0.0387998	-0.731102	-0.311732	-0.0748924	1.81048	1.59793	0.0524674	0.043873
3.21	-0.308636	0.00967912	-0.0720646	0.967468	0.980632	-0.338834	0.289105	0.00162188	-0.183019	-0.688739	0.471611	0.0915429	0.0289867	1.11632	-0.0512469	-0.0436084	-1.86543	0.281424	0.0686156	-0.0460686	0.0706927	0.0284088	0.246702	-0.289452	-0.374727	-0.101918	2.04532	1.45449	0.0296385	0.0387998	-0.777398	-0.316935	-0.094999	1.84769	1.57969	0.0524674	0.043873
3.22	-0.312212	0.0177891	-0.0558984	0.969885	0.985493	-0.3395	0.219652	-0.012939	-0.203859	-0.632993	0.379273	0.0915429	0.0289867	1.1463	-0.0369659	-0.0558085	-1.77534	0.292149	0.0686156	-0.0460686	0.0840694	0.0113835	0.250475	-0.278205	-0.3648	-0.103508	2.1008	1.50071	0.0296385	0.0387998	-0.825047	-0.320799	-0.117616	1.8899	1.56489	0.0524674	0.043873
3.23	-0.31584	0.0246029	-0.0395162	0.972717	0.990341	-0.340267	0.153618	-0.0248219	-0.223251	-0.580592	0.273511	0.0915429	0.0289867	1.16752	-0.0228079	-0.0708861	-1.67642	0.304533	0.0686156	-0.0460686	0.0977065	-0.00439032	0.252576	-0.271441	-0.3557	-0.104448	2.15888	1.55085	0.0296385	0.0387998	-0.87193	-0.322896	-0.141973	1.93371	1.55391	0.0524674	0.043873
3.24	-0.319204	0.0296761	-0.0233062	0.9757	0.994918	-0.341145	0.0931908	-0.0333054	-0.238205	-0.536225	0.161222	0.0915429	0.0289867	1.18027	-0.00898188	-0.0876639	-1.57035	0.31886	0.0686156	-0.0460686	0.110608	-0.0182049	0.25335	-0.268163	-0.348409	-0.103695	2.21636	1.60239	0.0296385	0.0387998	-0.91584	-0.322989	-0.167117	1.97625	1.54661	0.0524674	0.043873
3.25	-0.321951	0.0326782	-0.00778069	0.978568	0.999043	-0.342098	0.0403388	-0.0378579	-0.245718	-0.504531	0.0503532	0.0915429	0.0289867	1.1849	0.00422838	-0.105117	-1.45875	0.334902	0.0686156	-0.0460686	0.121821	-0.0294919	0.253323	-0.267646	-0.343514	-0.100672	2.27014	1.65227	0.0296385	0.0387998	-0.954684	-0.321021	-0.192024	2.01533	1.54263	0.0524674	0.043873
3.26	-0.323749	0.033404	0.00650065	0.981109	1.00261	-0.343048	-0.00337205	-0.0381659	-0.243362	-0.489649	-0.0510104	0.0915429	0.0289867	1.18183	0.0164532	-0.122461	-1.34337	0.351995	0.0686156	-0.0460686	0.130523	-0.0378645	0.25305	-0.269451	-0.341165	-0.0952698	2.3173	1.69726	0.0296385	0.0387998	-0.986676	-0.317085	-0.215696	2.04953	1.54169	0.0524674	0.043873
